<?xml version="1.0" encoding="utf-8"?>
<!-- Generator: Adobe Illustrator 23.0.0, SVG Export Plug-In . SVG Version: 6.00 Build 0)  -->
<svg version="1.1" id="Layer_1" xmlns="http://www.w3.org/2000/svg" xmlns:xlink="http://www.w3.org/1999/xlink" x="0px" y="0px"
	 viewBox="0 0 1920 1080" style="enable-background:new 0 0 1920 1080;" xml:space="preserve">
<style type="text/css">
	.st0{fill:#0000FF;}
</style>
<g>
	<g>
		<path class="st0" d="M380.87,403.31h9.96v71.04h-9.96V403.31z M385.21,434.86h24.22c1.89,0,3.56-0.46,5.03-1.37
			c1.46-0.91,2.6-2.21,3.39-3.88c0.8-1.68,1.2-3.6,1.2-5.79c0-2.18-0.4-4.11-1.2-5.79c-0.8-1.68-1.92-2.97-3.37-3.88
			c-1.45-0.91-3.13-1.37-5.05-1.37h-24.22v-9.47h23.83c4.1,0,7.71,0.85,10.82,2.54c3.11,1.69,5.52,4.09,7.23,7.2
			c1.71,3.11,2.56,6.7,2.56,10.77c0,4.07-0.86,7.66-2.59,10.77c-1.73,3.11-4.14,5.51-7.25,7.2c-3.11,1.69-6.7,2.54-10.77,2.54
			h-23.83V434.86z M404.55,442.13l9.91-2.25l18.16,34.47h-11.82L404.55,442.13z"/>
		<path class="st0" d="M458.8,475.09c0,0-1.66-0.88-4.98-2.64s-5.85-4.34-7.59-7.74c-1.74-3.4-2.61-7.51-2.61-12.33v-5.71
			c0-5.01,0.84-9.29,2.51-12.84c1.68-3.55,4.11-6.25,7.3-8.11c3.19-1.86,7.03-2.78,11.52-2.78c4.23,0,7.84,1.06,10.84,3.17
			c2.99,2.12,5.28,5.18,6.86,9.18c1.58,4,2.37,8.81,2.37,14.4v3.32h-34.18v-8.01h24.71c-0.29-4.13-1.36-7.35-3.2-9.64
			c-1.84-2.29-4.31-3.44-7.4-3.44c-3.78,0-6.7,1.24-8.76,3.71c-2.07,2.47-3.1,5.97-3.1,10.5v6.45c0,4.2,1.11,7.42,3.32,9.67
			c2.21,2.25,5.35,3.37,9.42,3.37c2.02,0,4.02-0.41,6.01-1.22c1.99-0.81,3.76-1.95,5.32-3.42l6.54,6.54
			c-2.51,2.41-5.32,4.27-8.45,5.59s-6.27,1.98-9.42,1.98C461.14,475.09,458.8,475.09,458.8,475.09z"/>
		<path class="st0" d="M512.22,475.09c0,0-1.64-0.86-4.91-2.59c-3.27-1.73-5.77-4.23-7.5-7.52c-1.73-3.29-2.59-7.26-2.59-11.91
			v-8.35c0-4.59,0.86-8.51,2.59-11.77c1.73-3.25,4.22-5.74,7.5-7.45s7.22-2.56,11.84-2.56c2.64,0,5.12,0.32,7.45,0.95
			c2.33,0.63,4.42,1.55,6.27,2.76c1.86,1.2,3.4,2.67,4.64,4.39l-7.18,6.45c-1.43-1.63-3.11-2.88-5.03-3.76
			c-1.92-0.88-3.92-1.32-6.01-1.32c-3.84,0-6.82,1.07-8.94,3.22c-2.12,2.15-3.17,5.18-3.17,9.08v8.35c0,4,1.05,7.1,3.15,9.28
			c2.1,2.18,5.09,3.27,8.96,3.27c2.12,0,4.13-0.47,6.05-1.42c1.92-0.94,3.58-2.28,4.98-4l7.18,6.93c-1.27,1.69-2.83,3.13-4.69,4.32
			c-1.86,1.19-3.95,2.09-6.27,2.71c-2.33,0.62-4.79,0.93-7.4,0.93C514.53,475.09,512.22,475.09,512.22,475.09z"/>
		<path class="st0" d="M556.65,472.5c-3.13-1.73-5.51-4.24-7.15-7.54c-1.64-3.3-2.47-7.28-2.47-11.94v-8.25
			c0-4.59,0.82-8.52,2.47-11.79c1.64-3.27,4.03-5.76,7.15-7.47s6.88-2.56,11.28-2.56s8.15,0.85,11.28,2.56s5.51,4.2,7.15,7.47
			c1.64,3.27,2.47,7.2,2.47,11.79v8.4c0,4.62-0.82,8.57-2.47,11.84c-1.64,3.27-4.03,5.77-7.15,7.5c-3.13,1.73-6.88,2.59-11.28,2.59
			S559.78,474.23,556.65,472.5z M576.01,462.35c1.9-2.18,2.86-5.24,2.86-9.18v-8.4c0-3.94-0.95-6.98-2.86-9.13s-4.6-3.22-8.08-3.22
			c-3.48,0-6.18,1.07-8.08,3.22s-2.86,5.19-2.86,9.13v8.4c0,3.94,0.95,7,2.86,9.18c1.9,2.18,4.6,3.27,8.08,3.27
			C571.41,465.62,574.11,464.53,576.01,462.35z"/>
		<path class="st0" d="M602.99,423.68h9.96v50.68h-9.96V423.68z M627.55,433.25c-1.33-0.55-2.88-0.83-4.64-0.83
			c-3.16,0-5.61,0.87-7.35,2.61c-1.74,1.74-2.61,4.16-2.61,7.25l-1.03-9.77c1.56-3.03,3.58-5.38,6.05-7.06
			c2.47-1.68,5.21-2.51,8.2-2.51c2.31,0,4.4,0.33,6.27,1c1.87,0.67,3.51,1.65,4.91,2.95l-6.49,8.79
			C629.99,434.61,628.88,433.8,627.55,433.25z"/>
		<path class="st0" d="M652.23,472.82c-2.62-1.61-4.61-3.96-5.98-7.06c-1.37-3.09-2.05-6.8-2.05-11.13v-11.18
			c0-4.36,0.67-8.09,2-11.18c1.33-3.09,3.28-5.44,5.83-7.06c2.55-1.61,5.62-2.42,9.2-2.42c2.99,0,5.74,0.78,8.23,2.34
			s4.5,3.76,6.03,6.59l-1.03,10.35c0-2.15-0.39-3.99-1.17-5.52c-0.78-1.53-1.91-2.69-3.39-3.49c-1.48-0.8-3.28-1.2-5.4-1.2
			c-3.29,0-5.83,1.03-7.64,3.08s-2.71,4.93-2.71,8.64v11.04c0,3.68,0.9,6.52,2.71,8.52s4.35,3,7.64,3c2.12,0,3.91-0.42,5.4-1.25
			c1.48-0.83,2.61-2.03,3.39-3.59s1.17-3.43,1.17-5.62l0.68,10.69c-1.01,2.51-2.66,4.61-4.96,6.3s-5.12,2.54-8.47,2.54
			C658.02,475.24,654.85,474.43,652.23,472.82z M674.47,403.36h9.96v71h-9.96V403.36z"/>
		<path class="st0" d="M699.57,403.36h9.96v9.96h-9.96V403.36z M699.57,423.68h9.96v50.68h-9.96V423.68z"/>
		<path class="st0" d="M724.67,423.68h9.96v50.68h-9.96V423.68z M755.43,443.65c0-3.58-0.93-6.35-2.78-8.3s-4.46-2.93-7.81-2.93
			c-3.26,0-5.77,0.86-7.54,2.59c-1.77,1.73-2.66,4.15-2.66,7.28l-1.03-9.77c1.56-3.06,3.6-5.42,6.13-7.08
			c2.52-1.66,5.31-2.49,8.37-2.49c5.5,0,9.76,1.8,12.77,5.4c3.01,3.6,4.52,8.68,4.52,15.26v30.76h-9.96V443.65z"/>
		<path class="st0" d="M787.09,472.82c-2.62-1.61-4.61-3.96-5.98-7.06c-1.37-3.09-2.05-6.8-2.05-11.13v-11.18
			c0-4.36,0.67-8.09,2-11.18c1.33-3.09,3.28-5.44,5.83-7.06c2.55-1.61,5.62-2.42,9.2-2.42c2.99,0,5.74,0.78,8.23,2.34
			s4.5,3.76,6.03,6.59l-1.03,10.35c0-2.15-0.39-3.99-1.17-5.52c-0.78-1.53-1.91-2.69-3.39-3.49c-1.48-0.8-3.28-1.2-5.4-1.2
			c-3.29,0-5.83,1.03-7.64,3.08s-2.71,4.93-2.71,8.64v11.04c0,3.68,0.9,6.52,2.71,8.52s4.35,3,7.64,3c2.12,0,3.91-0.42,5.4-1.25
			c1.48-0.83,2.61-2.03,3.39-3.59s1.17-3.43,1.17-5.62l0.68,10.69c-1.01,2.51-2.66,4.61-4.96,6.3s-5.12,2.54-8.47,2.54
			C792.88,475.24,789.71,474.43,787.09,472.82z M791.81,494.97c0,0-1.51-0.71-4.52-2.12c-3.01-1.42-5.35-3.41-7.01-5.98l6.74-6.1
			c1.3,1.79,2.86,3.17,4.66,4.15s3.7,1.46,5.69,1.46c3.81,0,6.75-1.05,8.84-3.15c2.08-2.1,3.13-5.07,3.13-8.91v-50.63h9.96v49.17
			c0,4.65-0.85,8.64-2.56,11.96s-4.19,5.84-7.45,7.57c-3.26,1.73-7.18,2.59-11.77,2.59C793.71,494.97,791.81,494.97,791.81,494.97z"
			/>
		<path class="st0" d="M852.5,403.36h50.1v9.47h-50.1V403.36z M872.57,409.17h9.96v65.19h-9.96V409.17z"/>
		<path class="st0" d="M917.59,472.5c-3.13-1.73-5.51-4.24-7.15-7.54c-1.64-3.3-2.47-7.28-2.47-11.94v-8.25
			c0-4.59,0.82-8.52,2.47-11.79c1.64-3.27,4.03-5.76,7.15-7.47s6.88-2.56,11.28-2.56s8.15,0.85,11.28,2.56s5.51,4.2,7.15,7.47
			c1.64,3.27,2.47,7.2,2.47,11.79v8.4c0,4.62-0.82,8.57-2.47,11.84c-1.64,3.27-4.03,5.77-7.15,7.5c-3.13,1.73-6.88,2.59-11.28,2.59
			S920.71,474.23,917.59,472.5z M936.95,462.35c1.9-2.18,2.86-5.24,2.86-9.18v-8.4c0-3.94-0.95-6.98-2.86-9.13s-4.6-3.22-8.08-3.22
			c-3.48,0-6.18,1.07-8.08,3.22s-2.86,5.19-2.86,9.13v8.4c0,3.94,0.95,7,2.86,9.18c1.9,2.18,4.6,3.27,8.08,3.27
			C932.35,465.62,935.04,464.53,936.95,462.35z"/>
		<path class="st0" d="M972.08,472.5c-3.13-1.73-5.51-4.24-7.15-7.54c-1.64-3.3-2.47-7.28-2.47-11.94v-8.25
			c0-4.59,0.82-8.52,2.47-11.79c1.64-3.27,4.03-5.76,7.15-7.47s6.88-2.56,11.28-2.56s8.15,0.85,11.28,2.56s5.51,4.2,7.15,7.47
			c1.64,3.27,2.47,7.2,2.47,11.79v8.4c0,4.62-0.82,8.57-2.47,11.84c-1.64,3.27-4.03,5.77-7.15,7.5c-3.13,1.73-6.88,2.59-11.28,2.59
			S975.21,474.23,972.08,472.5z M991.44,462.35c1.9-2.18,2.86-5.24,2.86-9.18v-8.4c0-3.94-0.95-6.98-2.86-9.13s-4.6-3.22-8.08-3.22
			c-3.48,0-6.18,1.07-8.08,3.22s-2.86,5.19-2.86,9.13v8.4c0,3.94,0.95,7,2.86,9.18c1.9,2.18,4.6,3.27,8.08,3.27
			C986.84,465.62,989.54,464.53,991.44,462.35z"/>
		<path class="st0" d="M1028.38,461.27c0,1.24,0.27,2.19,0.81,2.86c0.54,0.67,1.29,1,2.27,1h4.69v9.47h-5.86
			c-3.78,0-6.7-1.17-8.76-3.52c-2.07-2.34-3.1-5.65-3.1-9.91v-57.81h9.96V461.27z"/>
		<path class="st0" d="M1075.21,403.36h9.96v71h-9.96V403.36z M1080.09,403.36h39.79v9.47h-39.79V403.36z M1080.09,435h34.42v9.47
			h-34.42V435z"/>
		<path class="st0" d="M1138.29,472.5c-3.13-1.73-5.51-4.24-7.15-7.54c-1.64-3.3-2.47-7.28-2.47-11.94v-8.25
			c0-4.59,0.82-8.52,2.47-11.79c1.64-3.27,4.03-5.76,7.15-7.47s6.88-2.56,11.28-2.56s8.15,0.85,11.28,2.56s5.51,4.2,7.15,7.47
			c1.64,3.27,2.47,7.2,2.47,11.79v8.4c0,4.62-0.82,8.57-2.47,11.84c-1.64,3.27-4.03,5.77-7.15,7.5c-3.13,1.73-6.88,2.59-11.28,2.59
			S1141.42,474.23,1138.29,472.5z M1157.65,462.35c1.9-2.18,2.86-5.24,2.86-9.18v-8.4c0-3.94-0.95-6.98-2.86-9.13
			s-4.6-3.22-8.08-3.22c-3.48,0-6.18,1.07-8.08,3.22s-2.86,5.19-2.86,9.13v8.4c0,3.94,0.95,7,2.86,9.18c1.9,2.18,4.6,3.27,8.08,3.27
			C1153.05,465.62,1155.75,464.53,1157.65,462.35z"/>
		<path class="st0" d="M1184.63,423.68h9.96v50.68h-9.96V423.68z M1209.19,433.25c-1.33-0.55-2.88-0.83-4.64-0.83
			c-3.16,0-5.61,0.87-7.35,2.61c-1.74,1.74-2.61,4.16-2.61,7.25l-1.03-9.77c1.56-3.03,3.58-5.38,6.05-7.06
			c2.47-1.68,5.21-2.51,8.2-2.51c2.31,0,4.4,0.33,6.27,1c1.87,0.67,3.51,1.65,4.91,2.95l-6.49,8.79
			C1211.63,434.61,1210.52,433.8,1209.19,433.25z"/>
		<path class="st0" d="M1255.53,472.8c-3.16-1.53-5.73-3.68-7.71-6.45l8.15-5.86c0.91,1.6,2.23,2.83,3.96,3.71
			c1.72,0.88,3.73,1.32,6.01,1.32c3.87,0,6.88-1.2,9.01-3.61c2.13-2.41,3.2-5.79,3.2-10.16v-48.39h9.96v48.44
			c0,4.92-0.86,9.11-2.59,12.6c-1.73,3.48-4.25,6.14-7.57,7.96c-3.32,1.82-7.32,2.73-12.01,2.73
			C1262.15,475.09,1258.68,474.33,1255.53,472.8z"/>
		<path class="st0" d="M1304.7,403.36h9.96v9.96h-9.96V403.36z M1304.7,423.68h9.96v50.68h-9.96V423.68z"/>
		<path class="st0" d="M1325.89,423.68h22.85v8.98h-22.85V423.68z M1333.97,471.21c-1.9-2.26-2.86-5.61-2.86-10.03v-52.25h9.96
			v52.34c0,1.24,0.24,2.19,0.73,2.86c0.49,0.67,1.2,1,2.15,1h4.79v9.47h-5.76C1338.88,474.6,1335.87,473.47,1333.97,471.21z"/>
		<path class="st0" d="M1375.84,475.09c0,0-1.31-0.29-3.93-0.88c-2.62-0.59-5.07-1.46-7.35-2.64c-2.28-1.17-4.38-2.64-6.3-4.39
			l5.91-7.28c2.73,2.08,5.45,3.65,8.15,4.69c2.7,1.04,5.37,1.56,8.01,1.56c3.94,0,6.89-0.61,8.86-1.83
			c1.97-1.22,2.95-3.05,2.95-5.49c0-1.63-0.54-2.85-1.61-3.66c-1.07-0.81-2.41-1.36-4-1.64c-1.6-0.28-3.84-0.53-6.74-0.76
			c-0.26,0-0.54-0.01-0.83-0.02c-0.29-0.02-0.57-0.04-0.83-0.07c-0.13,0-0.26-0.01-0.39-0.02c-0.13-0.02-0.26-0.02-0.39-0.02
			c-3.29-0.26-6.07-0.74-8.35-1.44c-2.28-0.7-4.17-2.01-5.69-3.93c-1.51-1.92-2.27-4.67-2.27-8.25c0-3.58,0.73-6.56,2.2-8.94
			c1.46-2.38,3.65-4.16,6.54-5.35c2.9-1.19,6.53-1.78,10.89-1.78c2.64,0,5.15,0.24,7.54,0.73s4.68,1.21,6.86,2.17
			c2.18,0.96,4.28,2.17,6.3,3.64l-6.01,7.28c-2.54-1.63-5.04-2.85-7.5-3.66c-2.46-0.81-4.86-1.22-7.2-1.22
			c-3.39,0-5.92,0.58-7.62,1.73c-1.69,1.16-2.54,2.89-2.54,5.2c0,1.37,0.48,2.39,1.44,3.08c0.96,0.68,2.17,1.14,3.64,1.37
			c1.46,0.23,3.55,0.42,6.25,0.59c0.2,0.03,0.4,0.05,0.61,0.05c0.21,0,0.43,0.02,0.66,0.05c0.1,0,0.2,0,0.29,0s0.2,0.02,0.29,0.05
			c3.55,0.23,6.57,0.7,9.06,1.42c2.49,0.72,4.58,2.13,6.27,4.25c1.69,2.12,2.54,5.18,2.54,9.18c0,3.65-0.78,6.67-2.34,9.06
			s-3.92,4.19-7.06,5.4c-3.14,1.2-7.09,1.81-11.84,1.81C1377.34,475.09,1375.84,475.09,1375.84,475.09z"/>
		<path class="st0" d="M1414.27,403.36h9.96v9.96h-9.96V403.36z M1414.27,423.68h9.96v50.68h-9.96V423.68z"/>
		<path class="st0" d="M1491.37,403.36h9.33v71h-9.72v-53.17l0.49,3.13l-17.48,40.19h-6.93l-17.48-39.21l0.49-4.1v53.17h-9.72v-71
			h9.33l20.85,46.88L1491.37,403.36z"/>
		<path class="st0" d="M1531.02,475.09c0,0-1.66-0.88-4.98-2.64s-5.85-4.34-7.59-7.74c-1.74-3.4-2.61-7.51-2.61-12.33v-5.71
			c0-5.01,0.84-9.29,2.51-12.84c1.68-3.55,4.11-6.25,7.3-8.11c3.19-1.86,7.03-2.78,11.52-2.78c4.23,0,7.84,1.06,10.84,3.17
			c2.99,2.12,5.28,5.18,6.86,9.18c1.58,4,2.37,8.81,2.37,14.4v3.32h-34.18v-8.01h24.71c-0.29-4.13-1.36-7.35-3.2-9.64
			c-1.84-2.29-4.31-3.44-7.4-3.44c-3.78,0-6.7,1.24-8.76,3.71c-2.07,2.47-3.1,5.97-3.1,10.5v6.45c0,4.2,1.11,7.42,3.32,9.67
			c2.21,2.25,5.35,3.37,9.42,3.37c2.02,0,4.02-0.41,6.01-1.22c1.99-0.81,3.76-1.95,5.32-3.42l6.54,6.54
			c-2.51,2.41-5.32,4.27-8.45,5.59s-6.27,1.98-9.42,1.98C1533.36,475.09,1531.02,475.09,1531.02,475.09z"/>
		<path class="st0" d="M1584.63,475.09c0,0-1.66-0.88-4.98-2.64s-5.85-4.34-7.59-7.74c-1.74-3.4-2.61-7.51-2.61-12.33v-5.71
			c0-5.01,0.84-9.29,2.51-12.84c1.68-3.55,4.11-6.25,7.3-8.11c3.19-1.86,7.03-2.78,11.52-2.78c4.23,0,7.84,1.06,10.84,3.17
			c2.99,2.12,5.28,5.18,6.86,9.18c1.58,4,2.37,8.81,2.37,14.4v3.32h-34.18v-8.01h24.71c-0.29-4.13-1.36-7.35-3.2-9.64
			c-1.84-2.29-4.31-3.44-7.4-3.44c-3.78,0-6.7,1.24-8.76,3.71c-2.07,2.47-3.1,5.97-3.1,10.5v6.45c0,4.2,1.11,7.42,3.32,9.67
			c2.21,2.25,5.35,3.37,9.42,3.37c2.02,0,4.02-0.41,6.01-1.22c1.99-0.81,3.76-1.95,5.32-3.42l6.54,6.54
			c-2.51,2.41-5.32,4.27-8.45,5.59s-6.27,1.98-9.42,1.98C1586.97,475.09,1584.63,475.09,1584.63,475.09z"/>
		<path class="st0" d="M1620.62,423.68h22.85v8.98h-22.85V423.68z M1628.7,471.21c-1.9-2.26-2.86-5.61-2.86-10.03v-52.25h9.96v52.34
			c0,1.24,0.24,2.19,0.73,2.86c0.49,0.67,1.2,1,2.15,1h4.79v9.47h-5.76C1633.6,474.6,1630.6,473.47,1628.7,471.21z"/>
		<path class="st0" d="M391.34,591.99c-3.73-2.07-6.57-5.08-8.52-9.03s-2.93-8.72-2.93-14.28v-45.31h9.96v45.65
			c0,5.18,1.3,9.18,3.91,12.01c2.6,2.83,6.28,4.25,11.04,4.25c4.79,0,8.49-1.42,11.11-4.25c2.62-2.83,3.93-6.84,3.93-12.01v-45.65
			h9.96v45.31c0,5.57-0.98,10.33-2.93,14.28s-4.8,6.97-8.54,9.03c-3.74,2.07-8.25,3.1-13.53,3.1
			C399.55,595.09,395.07,594.06,391.34,591.99z"/>
		<path class="st0" d="M458.85,595.09c0,0-1.31-0.29-3.93-0.88c-2.62-0.59-5.07-1.46-7.35-2.64c-2.28-1.17-4.38-2.64-6.3-4.39
			l5.91-7.28c2.73,2.08,5.45,3.65,8.15,4.69c2.7,1.04,5.37,1.56,8.01,1.56c3.94,0,6.89-0.61,8.86-1.83
			c1.97-1.22,2.95-3.05,2.95-5.49c0-1.63-0.54-2.85-1.61-3.66c-1.07-0.81-2.41-1.36-4-1.64c-1.6-0.28-3.84-0.53-6.74-0.76
			c-0.26,0-0.54-0.01-0.83-0.02c-0.29-0.02-0.57-0.04-0.83-0.07c-0.13,0-0.26-0.01-0.39-0.02c-0.13-0.02-0.26-0.02-0.39-0.02
			c-3.29-0.26-6.07-0.74-8.35-1.44c-2.28-0.7-4.17-2.01-5.69-3.93s-2.27-4.67-2.27-8.25s0.73-6.56,2.2-8.94s3.65-4.16,6.54-5.35
			c2.9-1.19,6.53-1.78,10.89-1.78c2.64,0,5.15,0.24,7.54,0.73s4.68,1.21,6.86,2.17c2.18,0.96,4.28,2.17,6.3,3.64l-6.01,7.28
			c-2.54-1.63-5.04-2.85-7.5-3.66c-2.46-0.81-4.86-1.22-7.2-1.22c-3.39,0-5.92,0.58-7.62,1.73c-1.69,1.16-2.54,2.89-2.54,5.2
			c0,1.37,0.48,2.39,1.44,3.08c0.96,0.68,2.17,1.14,3.64,1.37s3.55,0.42,6.25,0.59c0.2,0.03,0.4,0.05,0.61,0.05
			c0.21,0,0.43,0.02,0.66,0.05c0.1,0,0.2,0,0.29,0s0.2,0.02,0.29,0.05c3.55,0.23,6.57,0.7,9.06,1.42s4.58,2.13,6.27,4.25
			c1.69,2.12,2.54,5.18,2.54,9.18c0,3.65-0.78,6.67-2.34,9.06s-3.91,4.19-7.06,5.4c-3.14,1.2-7.09,1.81-11.84,1.81
			C460.34,595.09,458.85,595.09,458.85,595.09z"/>
		<path class="st0" d="M497.28,523.36h9.96v9.96h-9.96V523.36z M497.28,543.68h9.96v50.68h-9.96V543.68z"/>
		<path class="st0" d="M522.37,543.68h9.96v50.68h-9.96V543.68z M553.13,563.65c0-3.58-0.93-6.35-2.78-8.3s-4.46-2.93-7.81-2.93
			c-3.26,0-5.77,0.86-7.54,2.59c-1.77,1.73-2.66,4.15-2.66,7.28l-1.03-9.77c1.56-3.06,3.6-5.42,6.13-7.08
			c2.52-1.66,5.31-2.49,8.37-2.49c5.5,0,9.76,1.8,12.77,5.4c3.01,3.6,4.52,8.68,4.52,15.26v30.76h-9.96V563.65z"/>
		<path class="st0" d="M584.8,592.82c-2.62-1.61-4.61-3.96-5.98-7.06c-1.37-3.09-2.05-6.8-2.05-11.13v-11.18
			c0-4.36,0.67-8.09,2-11.18c1.33-3.09,3.28-5.44,5.83-7.06c2.56-1.61,5.62-2.42,9.2-2.42c2.99,0,5.74,0.78,8.23,2.34
			s4.5,3.76,6.03,6.59l-1.03,10.35c0-2.15-0.39-3.99-1.17-5.52s-1.91-2.69-3.39-3.49c-1.48-0.8-3.28-1.2-5.4-1.2
			c-3.29,0-5.83,1.03-7.64,3.08s-2.71,4.93-2.71,8.64v11.04c0,3.68,0.9,6.52,2.71,8.52s4.35,3,7.64,3c2.12,0,3.91-0.42,5.4-1.25
			c1.48-0.83,2.61-2.03,3.39-3.59s1.17-3.43,1.17-5.62l0.68,10.69c-1.01,2.51-2.66,4.61-4.96,6.3s-5.12,2.54-8.47,2.54
			C590.59,595.24,587.42,594.43,584.8,592.82z M589.51,614.97c0,0-1.51-0.71-4.52-2.12c-3.01-1.42-5.35-3.41-7.01-5.98l6.74-6.1
			c1.3,1.79,2.86,3.17,4.66,4.15s3.7,1.46,5.69,1.46c3.81,0,6.75-1.05,8.84-3.15c2.08-2.1,3.13-5.07,3.13-8.91v-50.63H617v49.17
			c0,4.65-0.85,8.64-2.56,11.96s-4.19,5.84-7.45,7.57c-3.26,1.72-7.18,2.59-11.77,2.59C591.42,614.97,589.51,614.97,589.51,614.97z"
			/>
		<path class="st0" d="M679.31,523.36h8.5l26.17,71h-10.74l-19.68-57.28l-19.68,57.28h-10.74L679.31,523.36z M665.2,569.31h37.35
			v9.47H665.2V569.31z"/>
		<path class="st0" d="M734.68,594.36h-9.96v-71h9.96V594.36z"/>
		<path class="st0" d="M762.66,591.85c-3.78-2.16-6.7-5.22-8.76-9.18c-2.07-3.96-3.1-8.54-3.1-13.75V548.8
			c0-5.21,1.03-9.79,3.1-13.75c2.07-3.96,4.99-7.01,8.76-9.18c3.78-2.16,8.14-3.25,13.09-3.25c4.95,0,9.31,1.08,13.09,3.25
			c3.78,2.17,6.7,5.22,8.76,9.18c2.07,3.96,3.1,8.54,3.1,13.75v20.12c0,5.21-1.03,9.79-3.1,13.75c-2.07,3.96-4.99,7.02-8.76,9.18
			c-3.78,2.17-8.14,3.25-13.09,3.25C770.79,595.09,766.43,594.01,762.66,591.85z M783.48,583.3c2.23-1.32,3.96-3.19,5.18-5.62
			c1.22-2.42,1.83-5.23,1.83-8.42v-20.8c0-3.19-0.61-6-1.83-8.42c-1.22-2.42-2.95-4.3-5.18-5.62c-2.23-1.32-4.81-1.98-7.74-1.98
			s-5.51,0.66-7.74,1.98c-2.23,1.32-3.96,3.19-5.18,5.62c-1.22,2.43-1.83,5.23-1.83,8.42v20.8c0,3.19,0.61,6,1.83,8.42
			c1.22,2.43,2.95,4.3,5.18,5.62c2.23,1.32,4.81,1.98,7.74,1.98S781.25,584.62,783.48,583.3z"/>
		<path class="st0" d="M816.81,523.32h9.96v71.04h-9.96V523.32z M821.15,554.86h24.22c1.89,0,3.56-0.46,5.03-1.37
			s2.6-2.21,3.39-3.88c0.8-1.68,1.2-3.61,1.2-5.79s-0.4-4.11-1.2-5.79c-0.8-1.68-1.92-2.97-3.37-3.88
			c-1.45-0.91-3.13-1.37-5.05-1.37h-24.22v-9.47h23.83c4.1,0,7.71,0.85,10.82,2.54c3.11,1.69,5.52,4.09,7.23,7.2
			c1.71,3.11,2.56,6.7,2.56,10.77c0,4.07-0.86,7.66-2.59,10.77c-1.73,3.11-4.14,5.51-7.25,7.2c-3.11,1.69-6.7,2.54-10.77,2.54
			h-23.83V554.86z M840.49,562.13l9.91-2.25l18.16,34.47h-11.82L840.49,562.13z"/>
		<path class="st0" d="M872.23,523.36h50.1v9.47h-50.1V523.36z M892.29,529.17h9.96v65.19h-9.96V529.17z"/>
		<path class="st0" d="M946.01,595.09c0,0-1.86-1.09-5.59-3.27c-3.73-2.18-6.62-5.27-8.67-9.28s-3.08-8.64-3.08-13.92v-19.48
			c0-5.27,1.03-9.91,3.08-13.92s4.94-7.1,8.67-9.3c3.73-2.2,8.05-3.3,12.96-3.3c4.07,0,7.81,0.87,11.23,2.61
			c3.42,1.74,6.27,4.21,8.57,7.4c2.29,3.19,3.85,6.88,4.66,11.08h-10.21c-0.62-2.21-1.65-4.19-3.1-5.93
			c-1.45-1.74-3.15-3.08-5.1-4.03c-1.95-0.94-3.97-1.42-6.05-1.42c-2.9,0-5.44,0.7-7.62,2.1c-2.18,1.4-3.87,3.36-5.08,5.88
			c-1.21,2.52-1.81,5.46-1.81,8.81v19.48c0,3.32,0.6,6.25,1.81,8.79c1.2,2.54,2.9,4.5,5.08,5.88c2.18,1.38,4.72,2.08,7.62,2.08
			c2.12,0,4.14-0.44,6.08-1.32c1.94-0.88,3.63-2.18,5.08-3.91c1.45-1.72,2.48-3.78,3.1-6.15h10.21c-0.81,4.2-2.38,7.89-4.69,11.08
			c-2.31,3.19-5.18,5.66-8.59,7.4c-3.42,1.74-7.15,2.61-11.18,2.61C948.46,595.09,946.01,595.09,946.01,595.09z"/>
	</g>
</g>
</svg>
