<?xml version="1.0" encoding="utf-8"?>
<!-- Generator: Adobe Illustrator 23.0.0, SVG Export Plug-In . SVG Version: 6.00 Build 0)  -->
<svg version="1.1" id="Layer_1" xmlns="http://www.w3.org/2000/svg" xmlns:xlink="http://www.w3.org/1999/xlink" x="0px" y="0px"
	 viewBox="0 0 1920 1080" style="enable-background:new 0 0 1920 1080;" xml:space="preserve">
<style type="text/css">
	.st0{fill:#0000FF;}
</style>
<g>
	<g>
		<path class="st0" d="M708.1,447.36h50.1v9.47h-50.1V447.36z M728.17,453.17h9.96v65.19h-9.96V453.17z"/>
		<path class="st0" d="M766.01,447.36h9.96v71h-9.96V447.36z M772.21,478.66h39.4v9.47h-39.4V478.66z M806.35,447.36h9.96v71h-9.96
			V447.36z"/>
		<path class="st0" d="M853.22,447.36h8.5l26.17,71h-10.74l-19.68-57.28l-19.68,57.28h-10.74L853.22,447.36z M839.11,493.31h37.35
			v9.47h-37.35V493.31z"/>
		<path class="st0" d="M898.63,447.36h9.03l34.72,54.88l-1.17,1.27v-56.15h9.86v70.95h-9.13l-34.62-54.05l1.17-1.27v55.32h-9.86
			V447.36z"/>
		<path class="st0" d="M968.65,447.36h9.96v71h-9.96V447.36z M976.46,487.21l31.35-39.84h12.26L975,502.15L976.46,487.21z
			 M988.28,480.47l7.86-7.28l26.9,45.17h-12.21L988.28,480.47z"/>
		<path class="st0" d="M1081,489.5v28.86h-9.96V489.5l-21.63-42.14h11.08l15.53,32.03l15.53-32.03h11.08L1081,489.5z"/>
		<path class="st0" d="M1120.36,515.85c-3.78-2.16-6.7-5.22-8.76-9.18c-2.07-3.96-3.1-8.54-3.1-13.75V472.8
			c0-5.21,1.03-9.79,3.1-13.75c2.07-3.96,4.99-7.01,8.76-9.18c3.78-2.16,8.14-3.25,13.09-3.25c4.95,0,9.31,1.08,13.09,3.25
			c3.78,2.17,6.7,5.22,8.76,9.18c2.07,3.96,3.1,8.54,3.1,13.75v20.12c0,5.21-1.03,9.79-3.1,13.75c-2.07,3.96-4.99,7.02-8.76,9.18
			c-3.78,2.17-8.14,3.25-13.09,3.25C1128.5,519.09,1124.13,518.01,1120.36,515.85z M1141.18,507.3c2.23-1.32,3.96-3.19,5.18-5.62
			c1.22-2.42,1.83-5.23,1.83-8.42v-20.8c0-3.19-0.61-6-1.83-8.42c-1.22-2.42-2.95-4.3-5.18-5.62c-2.23-1.32-4.81-1.98-7.74-1.98
			s-5.51,0.66-7.74,1.98c-2.23,1.32-3.96,3.19-5.18,5.62c-1.22,2.43-1.83,5.23-1.83,8.42v20.8c0,3.19,0.61,6,1.83,8.42
			c1.22,2.43,2.95,4.3,5.18,5.62c2.23,1.32,4.81,1.98,7.74,1.98S1138.95,508.62,1141.18,507.3z"/>
		<path class="st0" d="M1184.98,515.99c-3.73-2.07-6.57-5.08-8.52-9.03s-2.93-8.72-2.93-14.28v-45.31h9.96v45.65
			c0,5.18,1.3,9.18,3.91,12.01c2.6,2.83,6.28,4.25,11.04,4.25c4.79,0,8.49-1.42,11.11-4.25c2.62-2.83,3.93-6.84,3.93-12.01v-45.65
			h9.96v45.31c0,5.57-0.98,10.33-2.93,14.28s-4.8,6.97-8.54,9.03c-3.74,2.07-8.25,3.1-13.53,3.1
			C1193.19,519.09,1188.71,518.06,1184.98,515.99z"/>
	</g>
</g>
</svg>
